<svg width="16" height="16" version="1.1"><path d="m13 11.28v-6.28c0-2-2-3-3-3h-1v-2l-3 3 3 3v-2h1s1 0 1 1v6.28c-1.7703 1.02-1.0429 3.725 1 3.72 2.043 5e-3 2.77-2.7 1-3.72zm-1 2.92c-0.66 0-1.2-0.55-1.2-1.2s0.55-1.2 1.2-1.2 1.2 0.55 1.2 1.2-0.55 1.2-1.2 1.2zm-6-11.2c0-1.11-0.89-2-2-2-2.0429-0.0054-2.7703 2.7004-1 3.72v6.56c-1.7703 1.02-1.0429 3.725 1 3.72 2.0429 5e-3 2.7703-2.7 1-3.72v-6.56c0.59-0.34 1-0.98 1-1.72zm-0.8 10c0 0.66-0.55 1.2-1.2 1.2s-1.2-0.55-1.2-1.2 0.55-1.2 1.2-1.2 1.2 0.55 1.2 1.2zm-1.2-8.8c-0.66 0-1.2-0.55-1.2-1.2s0.55-1.2 1.2-1.2 1.2 0.55 1.2 1.2-0.55 1.2-1.2 1.2z"/></svg>
